<svg width="200" height="85" viewBox="0 0 200 85" fill="none" xmlns="http://www.w3.org/2000/svg">
<path d="M34.2418 47.423L36.1594 43.8104V63.4667H34.2418V47.423ZM38.0771 40.0917L39.9947 36.4792V63.4667H38.0771V40.0917ZM41.9123 32.8667L43.8299 29.2277V63.4667H41.9123V32.8667ZM29.0483 46.5198L27.9564 44.5277L41.1666 19.4792H43.3239L29.0483 46.5198ZM26.8377 42.3495L25.7191 40.3307L36.7987 19.4792H38.9826L26.8377 42.3495ZM14.0004 44.023L15.918 47.6354V63.4667H14.0004V44.023ZM10.1651 36.7448L12.0827 40.3573V63.4667H10.1651V36.7448ZM6.32992 29.4667L8.24753 33.1057V63.4667H6.32992V29.4667ZM21.8306 51.9917H19.6733L4.4123 23.1182V63.4667H2.49469V19.4792H4.65201L21.8306 51.9917ZM26.1718 51.9917H23.988L6.83595 19.4792H9.01991L26.1718 51.9917ZM45.7475 23.1182L30.4865 51.9917H28.3025L11.1772 19.4792H13.3346L29.4212 49.973L45.4812 19.4792H47.6651V63.4667H45.7475V23.1182ZM68.2529 34.0354C66.1932 36.0897 65.1634 38.5687 65.1634 41.473C65.1634 44.377 66.1932 46.8563 68.2529 48.9104C70.3125 50.9647 72.7983 51.9917 75.7102 51.9917C78.6222 51.9917 81.108 50.9647 83.1676 48.9104C85.2273 46.8563 86.2571 44.377 86.2571 41.473C86.2571 38.5687 85.2273 36.0897 83.1676 34.0354C81.108 31.9813 78.6222 30.9542 75.7102 30.9542C72.7983 30.9542 70.3125 31.9813 68.2529 34.0354ZM64.2312 46.3073C63.5742 44.7667 63.2457 43.1552 63.2457 41.473C63.2457 39.7907 63.5742 38.188 64.2312 36.6652C64.8882 35.1245 65.7759 33.7964 66.8946 32.6807C68.0132 31.5652 69.3359 30.6797 70.863 30.0245C72.4077 29.3693 74.0234 29.0417 75.7102 29.0417C77.3971 29.0417 79.0039 29.3693 80.5309 30.0245C82.0757 30.6797 83.4073 31.5652 84.5259 32.6807C85.6446 33.7964 86.5323 35.1245 87.1893 36.6652C87.8463 38.188 88.1748 39.7907 88.1748 41.473C88.1748 43.1552 87.8463 44.7667 87.1893 46.3073C86.5323 47.8302 85.6446 49.1495 84.5259 50.2652C83.4073 51.3807 82.0757 52.2662 80.5309 52.9214C79.0039 53.5765 77.3971 53.9042 75.7102 53.9042C74.0234 53.9042 72.4077 53.5765 70.863 52.9214C69.3359 52.2662 68.0132 51.3807 66.8946 50.2652C65.7759 49.1495 64.8882 47.8302 64.2312 46.3073ZM63.2457 34.2745C61.9673 36.4703 61.3282 38.8698 61.3282 41.473C61.3282 44.076 61.9673 46.4755 63.2457 48.6714C64.542 50.8672 66.2908 52.6115 68.4925 53.9042C70.6942 55.1792 73.1001 55.8167 75.7102 55.8167C78.3204 55.8167 80.7263 55.1792 82.928 53.9042C85.1297 52.6115 86.8697 50.8672 88.1481 48.6714C89.4442 46.4755 90.0923 44.076 90.0923 41.473C90.0923 38.8698 89.4442 36.4703 88.1481 34.2745C86.8697 32.0787 85.1297 30.3432 82.928 29.0682C80.7263 27.7755 78.3204 27.1292 75.7102 27.1292C73.1001 27.1292 70.6942 27.7755 68.4925 29.0682C66.2908 30.3432 64.542 32.0787 63.2457 34.2745ZM61.5945 49.6277C60.1385 47.1307 59.4105 44.4125 59.4105 41.473C59.4105 38.5333 60.1385 35.8152 61.5945 33.3182C63.0505 30.8214 65.0302 28.8469 67.5338 27.3948C70.0373 25.9427 72.7627 25.2167 75.7102 25.2167C78.6577 25.2167 81.3832 25.9427 83.8867 27.3948C86.3902 28.8469 88.37 30.8214 89.826 33.3182C91.2819 35.8152 92.01 38.5333 92.01 41.473C92.01 44.4125 91.2819 47.1307 89.826 49.6277C88.37 52.1245 86.3902 54.099 83.8867 55.551C81.3832 57.0032 78.6577 57.7292 75.7102 57.7292C72.7627 57.7292 70.0373 57.0032 67.5338 55.551C65.0302 54.099 63.0505 52.1245 61.5945 49.6277ZM58.9312 34.4073C57.9723 36.6563 57.493 39.0115 57.493 41.473C57.493 43.9344 57.9723 46.2897 58.9312 48.5385C59.8899 50.7875 61.1772 52.7265 62.793 54.3557C64.4265 55.9672 66.3707 57.251 68.6257 58.2073C70.8807 59.1635 73.2422 59.6417 75.7102 59.6417C78.1783 59.6417 80.5398 59.1635 82.7948 58.2073C85.0498 57.251 86.9851 55.9672 88.6009 54.3557C90.2343 52.7265 91.5306 50.7875 92.4893 48.5385C93.4482 46.2897 93.9275 43.9344 93.9275 41.473C93.9275 39.0115 93.4482 36.6563 92.4893 34.4073C91.5306 32.1583 90.2343 30.2282 88.6009 28.6167C86.9851 26.9875 85.0498 25.6948 82.7948 24.7385C80.5398 23.7823 78.1783 23.3042 75.7102 23.3042C73.2422 23.3042 70.8807 23.7823 68.6257 24.7385C66.3707 25.6948 64.4265 26.9875 62.793 28.6167C61.1772 30.2282 59.8899 32.1583 58.9312 34.4073ZM58.2652 51.5402C56.472 48.4589 55.5752 45.1032 55.5752 41.473C55.5752 37.8427 56.472 34.487 58.2652 31.4057C60.0764 28.3245 62.5266 25.8897 65.6162 24.101C68.7056 22.2948 72.0704 21.3917 75.7102 21.3917C79.3501 21.3917 82.7149 22.2948 85.8043 24.101C88.8939 25.8897 91.3352 28.3245 93.1285 31.4057C94.9397 34.487 95.8452 37.8427 95.8452 41.473C95.8452 45.1032 94.9397 48.4589 93.1285 51.5402C91.3352 54.6214 88.8939 57.0652 85.8043 58.8714C82.7149 60.6599 79.3501 61.5542 75.7102 61.5542C72.0704 61.5542 68.7056 60.6599 65.6162 58.8714C62.5266 57.0652 60.0764 54.6214 58.2652 51.5402ZM55.3889 32.9464C54.2348 35.6557 53.6577 38.498 53.6577 41.473C53.6577 44.448 54.2348 47.299 55.3889 50.026C56.5607 52.7354 58.1321 55.073 60.103 57.0385C62.0739 59.0042 64.4176 60.5714 67.1342 61.7402C69.8687 62.8912 72.7273 63.4667 75.7102 63.4667C78.6932 63.4667 81.543 62.8912 84.2596 61.7402C86.994 60.5714 89.3466 59.0042 91.3175 57.0385C93.2884 55.073 94.8509 52.7354 96.005 50.026C97.1768 47.299 97.7627 44.448 97.7627 41.473C97.7627 38.498 97.1768 35.6557 96.005 32.9464C94.8509 30.2193 93.2884 27.873 91.3175 25.9073C89.3466 23.9417 86.994 22.3833 84.2596 21.2323C81.543 20.0635 78.6932 19.4792 75.7102 19.4792C72.7273 19.4792 69.8687 20.0635 67.1342 21.2323C64.4176 22.3833 62.0739 23.9417 60.103 25.9073C58.1321 27.873 56.5607 30.2193 55.3889 32.9464ZM53.631 50.7698C52.3704 47.8125 51.74 44.7135 51.74 41.473C51.74 38.2323 52.3704 35.1422 53.631 32.2027C54.9095 29.2453 56.614 26.7042 58.7447 24.5792C60.8931 22.4365 63.441 20.7365 66.3885 19.4792C69.3537 18.2042 72.4609 17.5667 75.7102 17.5667C78.9596 17.5667 82.0579 18.2042 85.0054 19.4792C87.9706 20.7365 90.5184 22.4365 92.6491 24.5792C94.7976 26.7042 96.5022 29.2453 97.7627 32.2027C99.0411 35.1422 99.6805 38.2323 99.6805 41.473C99.6805 44.7135 99.0411 47.8125 97.7627 50.7698C96.5022 53.7094 94.7976 56.2505 92.6491 58.3932C90.5184 60.5182 87.9706 62.2094 85.0054 63.4667C82.0579 64.7417 78.9596 65.3792 75.7102 65.3792C72.4609 65.3792 69.3537 64.7417 66.3885 63.4667C63.441 62.2094 60.8931 60.5182 58.7447 58.3932C56.614 56.2505 54.9095 53.7094 53.631 50.7698ZM119.176 34.0354C117.116 36.0897 116.086 38.5687 116.086 41.473C116.086 44.377 117.116 46.8563 119.176 48.9104C121.236 50.9647 123.722 51.9917 126.634 51.9917C129.545 51.9917 132.032 50.9647 134.091 48.9104C136.15 46.8563 137.181 44.377 137.181 41.473C137.181 38.5687 136.15 36.0897 134.091 34.0354C132.032 31.9813 129.545 30.9542 126.634 30.9542C123.722 30.9542 121.236 31.9813 119.176 34.0354ZM115.155 46.3073C114.498 44.7667 114.169 43.1552 114.169 41.473C114.169 39.7907 114.498 38.188 115.155 36.6652C115.811 35.1245 116.699 33.7964 117.818 32.6807C118.936 31.5652 120.259 30.6797 121.786 30.0245C123.331 29.3693 124.947 29.0417 126.634 29.0417C128.32 29.0417 129.927 29.3693 131.455 30.0245C132.999 30.6797 134.331 31.5652 135.449 32.6807C136.568 33.7964 137.456 35.1245 138.113 36.6652C138.769 38.188 139.098 39.7907 139.098 41.473C139.098 43.1552 138.769 44.7667 138.113 46.3073C137.456 47.8302 136.568 49.1495 135.449 50.2652C134.331 51.3807 132.999 52.2662 131.455 52.9214C129.927 53.5765 128.32 53.9042 126.634 53.9042C124.947 53.9042 123.331 53.5765 121.786 52.9214C120.259 52.2662 118.936 51.3807 117.818 50.2652C116.699 49.1495 115.811 47.8302 115.155 46.3073ZM114.169 34.2745C112.891 36.4703 112.251 38.8698 112.251 41.473C112.251 44.076 112.891 46.4755 114.169 48.6714C115.465 50.8672 117.214 52.6115 119.416 53.9042C121.617 55.1792 124.024 55.8167 126.634 55.8167C129.243 55.8167 131.65 55.1792 133.851 53.9042C136.053 52.6115 137.793 50.8672 139.072 48.6714C140.367 46.4755 141.016 44.076 141.016 41.473C141.016 38.8698 140.367 36.4703 139.072 34.2745C137.793 32.0787 136.053 30.3432 133.851 29.0682C131.65 27.7755 129.243 27.1292 126.634 27.1292C124.024 27.1292 121.617 27.7755 119.416 29.0682C117.214 30.3432 115.465 32.0787 114.169 34.2745ZM112.518 49.6277C111.062 47.1307 110.334 44.4125 110.334 41.473C110.334 38.5333 111.062 35.8152 112.518 33.3182C113.974 30.8214 115.953 28.8469 118.457 27.3948C120.96 25.9427 123.686 25.2167 126.634 25.2167C129.581 25.2167 132.307 25.9427 134.81 27.3948C137.314 28.8469 139.293 30.8214 140.749 33.3182C142.206 35.8152 142.933 38.5333 142.933 41.473C142.933 44.4125 142.206 47.1307 140.749 49.6277C139.293 52.1245 137.314 54.099 134.81 55.551C132.307 57.0032 129.581 57.7292 126.634 57.7292C123.686 57.7292 120.96 57.0032 118.457 55.551C115.953 54.099 113.974 52.1245 112.518 49.6277ZM109.854 34.4073C108.896 36.6563 108.416 39.0115 108.416 41.473C108.416 43.9344 108.896 46.2897 109.854 48.5385C110.813 50.7875 112.1 52.7265 113.716 54.3557C115.35 55.9672 117.294 57.251 119.549 58.2073C121.805 59.1635 124.166 59.6417 126.634 59.6417C129.101 59.6417 131.464 59.1635 133.718 58.2073C135.973 57.251 137.908 55.9672 139.524 54.3557C141.158 52.7265 142.453 50.7875 143.413 48.5385C144.372 46.2897 144.851 43.9344 144.851 41.473C144.851 39.0115 144.372 36.6563 143.413 34.4073C142.453 32.1583 141.158 30.2282 139.524 28.6167C137.908 26.9875 135.973 25.6948 133.718 24.7385C131.464 23.7823 129.101 23.3042 126.634 23.3042C124.166 23.3042 121.805 23.7823 119.549 24.7385C117.294 25.6948 115.35 26.9875 113.716 28.6167C112.1 30.2282 110.813 32.1583 109.854 34.4073ZM109.189 51.5402C107.395 48.4589 106.499 45.1032 106.499 41.473C106.499 37.8427 107.395 34.487 109.189 31.4057C111 28.3245 113.45 25.8897 116.54 24.101C119.628 22.2948 122.993 21.3917 126.634 21.3917C130.274 21.3917 133.639 22.2948 136.727 24.101C139.817 25.8897 142.259 28.3245 144.052 31.4057C145.863 34.487 146.768 37.8427 146.768 41.473C146.768 45.1032 145.863 48.4589 144.052 51.5402C142.259 54.6214 139.817 57.0652 136.727 58.8714C133.639 60.6599 130.274 61.5542 126.634 61.5542C122.993 61.5542 119.628 60.6599 116.54 58.8714C113.45 57.0652 111 54.6214 109.189 51.5402ZM106.312 32.9464C105.158 35.6557 104.581 38.498 104.581 41.473C104.581 44.448 105.158 47.299 106.312 50.026C107.484 52.7354 109.055 55.073 111.026 57.0385C112.997 59.0042 115.341 60.5714 118.058 61.7402C120.792 62.8912 123.65 63.4667 126.634 63.4667C129.616 63.4667 132.466 62.8912 135.183 61.7402C137.917 60.5714 140.27 59.0042 142.241 57.0385C144.211 55.073 145.774 52.7354 146.928 50.026C148.1 47.299 148.686 44.448 148.686 41.473C148.686 38.498 148.1 35.6557 146.928 32.9464C145.774 30.2193 144.211 27.873 142.241 25.9073C140.27 23.9417 137.917 22.3833 135.183 21.2323C132.466 20.0635 129.616 19.4792 126.634 19.4792C123.65 19.4792 120.792 20.0635 118.058 21.2323C115.341 22.3833 112.997 23.9417 111.026 25.9073C109.055 27.873 107.484 30.2193 106.312 32.9464ZM104.554 50.7698C103.294 47.8125 102.663 44.7135 102.663 41.473C102.663 38.2323 103.294 35.1422 104.554 32.2027C105.833 29.2453 107.537 26.7042 109.668 24.5792C111.816 22.4365 114.365 20.7365 117.311 19.4792C120.277 18.2042 123.384 17.5667 126.634 17.5667C129.883 17.5667 132.981 18.2042 135.928 19.4792C138.894 20.7365 141.442 22.4365 143.573 24.5792C145.72 26.7042 147.425 29.2453 148.686 32.2027C149.965 35.1422 150.603 38.2323 150.603 41.473C150.603 44.7135 149.965 47.8125 148.686 50.7698C147.425 53.7094 145.72 56.2505 143.573 58.3932C141.442 60.5182 138.894 62.2094 135.928 63.4667C132.981 64.7417 129.883 65.3792 126.634 65.3792C123.384 65.3792 120.277 64.7417 117.311 63.4667C114.365 62.2094 111.816 60.5182 109.668 58.3932C107.537 56.2505 105.833 53.7094 104.554 50.7698ZM185.893 42.2964L183.975 39.1354V19.4792H185.893V42.2964ZM189.728 48.5652L187.81 45.351V19.4792H189.728V48.5652ZM193.564 54.9135L191.645 51.673V19.4792H193.564V54.9135ZM166.077 40.6495L167.995 43.8104V63.4667H166.077V40.6495ZM162.242 34.3807L164.16 37.5948V63.4667H162.242V34.3807ZM158.407 28.0323L160.325 31.273V63.4667H158.407V28.0323ZM159.073 19.4792H161.31L188.423 63.4667H186.186L159.073 19.4792ZM163.601 19.4792H165.865L192.951 63.4667H190.66L163.601 19.4792ZM168.102 19.4792H170.339L195.481 60.3589V19.4792H197.399V63.4667C197.399 63.4667 196.644 63.4667 195.135 63.4667L168.102 19.4792ZM156.49 22.587V63.4667H154.572V19.4792C154.572 19.4792 155.335 19.4792 156.863 19.4792L183.895 63.4667H181.685L156.49 22.587Z" fill="white"/>
<path d="M2.31709 8.95378H2.7965V15.8667H2.31709V8.95378ZM0.399475 6.7823V6.30417H7.59053V6.7823H0.399475ZM0.399475 7.73854V7.26042H7.59053V7.73854H0.399475ZM0.399475 8.6948V8.21667H7.59053V8.6948H0.399475ZM5.19351 8.95378H5.67292V15.8667H5.19351V8.95378ZM4.2347 8.95378H4.71411V15.8667H4.2347V8.95378ZM3.27589 8.95378H3.7553V15.8667H3.27589V8.95378ZM18.244 6.30417H18.7234V15.8667H18.244V6.30417ZM8.64921 6.30417H9.12861V15.8667H8.64921V6.30417ZM17.2851 6.30417H17.7645V15.8667H17.2851V6.30417ZM16.3263 6.30417H16.8058V15.8667H16.3263V6.30417ZM15.3675 6.30417H15.8469V15.8667H15.3675V12.0417H12.0051V15.8667H11.5257V6.30417H12.0051V9.65104H15.3675V6.30417ZM10.5668 6.30417H11.0462V15.8667H10.5668V6.30417ZM9.60802 6.30417H10.0874V15.8667H9.60802V6.30417ZM15.3675 11.5635V11.0854H12.0051V11.5635H15.3675ZM15.3675 10.6073V10.1292H12.0051V10.6073H15.3675ZM22.3788 15.8667H21.8994V6.30417H22.3788V15.8667ZM21.42 15.8667H20.9405V6.30417H21.42V15.8667ZM20.4612 15.8667H19.9818V6.30417H20.4612V15.8667ZM23.3376 13.476H27.9252V13.9542H23.3376V14.4323H27.9252V14.9104H23.3376V15.3885H27.9252V15.8667H22.8582V6.30417H27.9252V6.7823H23.3376V7.26042H27.9252V7.73854H23.3376V8.21667H27.9252V8.6948H23.3376V9.88346H27.6588V10.3616H23.3376V10.8397H27.6588V11.3178H23.3376V11.796H27.6588V12.2741H23.3376V13.476Z" fill="white"/>
</svg>
