<svg xmlns="http://www.w3.org/2000/svg" xmlns:xlink="http://www.w3.org/1999/xlink" zoomAndPan="magnify" preserveAspectRatio="xMidYMid meet" version="1.0" viewBox="25.77 161.3 322.77 55.94"><defs><g/><clipPath id="de0db4c66c"><path d="M 0 0.679688 L 327.839844 0.679688 L 327.839844 106.761719 L 0 106.761719 Z M 0 0.679688 " clip-rule="nonzero"/></clipPath><clipPath id="9f8cdf8fb8"><rect x="0" width="328" y="0" height="107"/></clipPath><clipPath id="eece542b24"><path d="M 283.195312 40.730469 L 324.390625 40.730469 L 324.390625 83.757812 L 283.195312 83.757812 Z M 283.195312 40.730469 " clip-rule="nonzero"/></clipPath><clipPath id="9b7172d6b7"><rect x="0" width="328" y="0" height="107"/></clipPath></defs><g transform="matrix(1, 0, 0, 1, 24, 133)"><g clip-path="url(#9b7172d6b7)"><g clip-path="url(#de0db4c66c)"><g><g clip-path="url(#9f8cdf8fb8)"><g fill="#ffffff" fill-opacity="1"><g transform="translate(0.224501, 83.488094)"><g><path d="M 28.234375 0 L 16.53125 0 L 16.53125 -45.4375 L 1.546875 -45.4375 L 1.546875 -55.1875 L 43.21875 -55.1875 L 43.21875 -45.4375 L 28.234375 -45.4375 Z M 28.234375 0 "/></g></g></g><g fill="#ffffff" fill-opacity="1"><g transform="translate(42.343632, 83.488094)"><g><path d="M 15.203125 -21.171875 C 15.203125 -16.992188 15.890625 -13.832031 17.265625 -11.6875 C 18.640625 -9.550781 20.875 -8.484375 23.96875 -8.484375 C 27.039062 -8.484375 29.25 -9.546875 30.59375 -11.671875 C 31.9375 -13.804688 32.609375 -16.972656 32.609375 -21.171875 C 32.609375 -25.347656 31.925781 -28.476562 30.5625 -30.5625 C 29.207031 -32.65625 26.984375 -33.703125 23.890625 -33.703125 C 20.816406 -33.703125 18.597656 -32.664062 17.234375 -30.59375 C 15.878906 -28.519531 15.203125 -25.378906 15.203125 -21.171875 Z M 44.390625 -21.171875 C 44.390625 -14.304688 42.578125 -8.9375 38.953125 -5.0625 C 35.328125 -1.1875 30.28125 0.75 23.8125 0.75 C 19.757812 0.75 16.1875 -0.132812 13.09375 -1.90625 C 10 -3.675781 7.617188 -6.222656 5.953125 -9.546875 C 4.296875 -12.867188 3.46875 -16.742188 3.46875 -21.171875 C 3.46875 -28.066406 5.265625 -33.425781 8.859375 -37.25 C 12.460938 -41.070312 17.523438 -42.984375 24.046875 -42.984375 C 28.097656 -42.984375 31.671875 -42.101562 34.765625 -40.34375 C 37.859375 -38.582031 40.234375 -36.050781 41.890625 -32.75 C 43.554688 -29.457031 44.390625 -25.597656 44.390625 -21.171875 Z M 44.390625 -21.171875 "/></g></g></g><g fill="#ffffff" fill-opacity="1"><g transform="translate(90.19952, 83.488094)"><g><path d="M 15.203125 -21.171875 C 15.203125 -16.992188 15.890625 -13.832031 17.265625 -11.6875 C 18.640625 -9.550781 20.875 -8.484375 23.96875 -8.484375 C 27.039062 -8.484375 29.25 -9.546875 30.59375 -11.671875 C 31.9375 -13.804688 32.609375 -16.972656 32.609375 -21.171875 C 32.609375 -25.347656 31.925781 -28.476562 30.5625 -30.5625 C 29.207031 -32.65625 26.984375 -33.703125 23.890625 -33.703125 C 20.816406 -33.703125 18.597656 -32.664062 17.234375 -30.59375 C 15.878906 -28.519531 15.203125 -25.378906 15.203125 -21.171875 Z M 44.390625 -21.171875 C 44.390625 -14.304688 42.578125 -8.9375 38.953125 -5.0625 C 35.328125 -1.1875 30.28125 0.75 23.8125 0.75 C 19.757812 0.75 16.1875 -0.132812 13.09375 -1.90625 C 10 -3.675781 7.617188 -6.222656 5.953125 -9.546875 C 4.296875 -12.867188 3.46875 -16.742188 3.46875 -21.171875 C 3.46875 -28.066406 5.265625 -33.425781 8.859375 -37.25 C 12.460938 -41.070312 17.523438 -42.984375 24.046875 -42.984375 C 28.097656 -42.984375 31.671875 -42.101562 34.765625 -40.34375 C 37.859375 -38.582031 40.234375 -36.050781 41.890625 -32.75 C 43.554688 -29.457031 44.390625 -25.597656 44.390625 -21.171875 Z M 44.390625 -21.171875 "/></g></g></g><g fill="#ffffff" fill-opacity="1"><g transform="translate(138.055407, 83.488094)"><g><path d="M 44.984375 0 L 33.484375 0 L 33.484375 -24.640625 C 33.484375 -27.691406 32.941406 -29.976562 31.859375 -31.5 C 30.773438 -33.019531 29.050781 -33.78125 26.6875 -33.78125 C 23.46875 -33.78125 21.140625 -32.703125 19.703125 -30.546875 C 18.265625 -28.398438 17.546875 -24.835938 17.546875 -19.859375 L 17.546875 0 L 6.03125 0 L 6.03125 -42.203125 L 14.828125 -42.203125 L 16.375 -36.796875 L 17.015625 -36.796875 C 18.304688 -38.835938 20.078125 -40.378906 22.328125 -41.421875 C 24.578125 -42.460938 27.132812 -42.984375 30 -42.984375 C 34.90625 -42.984375 38.628906 -41.65625 41.171875 -39 C 43.710938 -36.351562 44.984375 -32.523438 44.984375 -27.515625 Z M 44.984375 0 "/></g></g></g><g fill="#ffffff" fill-opacity="1"><g transform="translate(188.85511, 83.488094)"><g><path d="M 2.296875 -16 L 2.296875 -25.4375 L 22.5625 -25.4375 L 22.5625 -16 Z M 2.296875 -16 "/></g></g></g><g fill="#ffffff" fill-opacity="1"><g transform="translate(213.726596, 83.488094)"><g><path d="M 30.3125 0 L 17.015625 -43.296875 L 16.6875 -43.296875 C 17.164062 -34.484375 17.40625 -28.609375 17.40625 -25.671875 L 17.40625 0 L 6.9375 0 L 6.9375 -55.1875 L 22.875 -55.1875 L 35.9375 -12.984375 L 36.15625 -12.984375 L 50.015625 -55.1875 L 65.9375 -55.1875 L 65.9375 0 L 55.03125 0 L 55.03125 -26.125 C 55.03125 -27.351562 55.046875 -28.769531 55.078125 -30.375 C 55.117188 -31.988281 55.289062 -36.269531 55.59375 -43.21875 L 55.25 -43.21875 L 41.03125 0 Z M 30.3125 0 "/></g></g></g><g fill="#ffffff" fill-opacity="1"><g transform="translate(286.617871, 83.488094)"><g/></g></g><g fill="#ffffff" fill-opacity="1"><g transform="translate(306.696208, 83.488094)"><g/></g></g></g></g></g><g clip-path="url(#eece542b24)"><path fill="#ffffff" d="M 324.542969 70.433594 C 321.609375 72.476562 318.042969 73.675781 314.199219 73.675781 C 304.195312 73.675781 296.085938 65.566406 296.085938 55.566406 C 296.085938 49.4375 299.128906 44.023438 303.78125 40.746094 C 292.332031 41.21875 283.195312 50.648438 283.195312 62.214844 C 283.195312 74.082031 292.816406 83.703125 304.683594 83.703125 C 313.640625 83.703125 321.316406 78.222656 324.542969 70.433594 Z M 324.542969 70.433594 " fill-opacity="1" fill-rule="evenodd"/></g></g></g></svg>